<svg width="145" height="145" viewBox="0 0 145 145" xmlns="http://www.w3.org/2000/svg"><g fill="none" fill-rule="evenodd"><path fill="#CCC" fill-rule="nonzero" d="M18 0h82v27h27v118H18z"/><path fill="#FFF" d="M19 1h81v26h26v117H19z"/><path fill="#FFDD0D" fill-rule="nonzero" d="M100 0l27 27h-27z"/><path d="M56 134.563V123h3.5c1.11 0 1.96.245 2.55.734.592.49.888 1.2.888 2.133 0 1.542-.78 2.636-2.336 3.281l3.859 5.415h-2.016l-3.289-4.891h-1.531v4.89H56zm1.625-6.118h.531c2.063 0 3.094-.81 3.094-2.43 0-1.192-.865-1.788-2.594-1.788h-1.031v4.218zm16.352 1.696l-1.97-4.985-1.976 4.985h3.946zm1.734 4.422l-1.258-3.204h-4.898l-1.274 3.203h-1.523L71.344 123h1.625l4.515 11.563h-1.773zm5.445 0V123h3.5c1.11 0 1.96.245 2.551.734.591.49.887 1.2.887 2.133 0 1.542-.779 2.636-2.336 3.281l3.86 5.415h-2.016l-3.29-4.891h-1.53v4.89h-1.626zm1.625-6.118h.531c2.063 0 3.094-.81 3.094-2.43 0-1.192-.864-1.788-2.594-1.788h-1.03v4.218zM30 80h18v23H30V80zm3 3v5h12v-5H33zm5-8h10v3H38v-3zm0-16h10v3H38v-3zm0-16h10v3H38v-3zm0-32h10v3H38v-3zm0 16h10v3H38v-3zm0 40h10v3H38v-3zm0-16h10v3H38v-3zm0-16h10v3H38v-3zm0-16h10v3H38v-3zm-8 52h10v3H30v-3zm0-16h10v3H30v-3zm0-16h10v3H30v-3zm0-32h10v3H30V7zm0 16h10v3H30v-3zm0 40h10v3H30v-3zm0-16h10v3H30v-3zm0-16h10v3H30v-3zm0-16h10v3H30v-3z" fill="#666" fill-rule="nonzero"/></g></svg>