<svg width="80" height="80" viewBox="0 0 80 80" xmlns="http://www.w3.org/2000/svg"><g fill="none" fill-rule="evenodd"><path fill="#CCC" d="M10 0h45v15h15v65H10z"/><path fill="#FFF" d="M11 1h44v14h14v64H11z"/><path fill="#88BF77" fill-rule="nonzero" d="M55 0l15 15H55z"/><path d="M31.002 72.885c-1.203 0-2.17-.417-2.903-1.25C27.366 70.8 27 69.697 27 68.326c0-1.379.368-2.482 1.104-3.308.737-.826 1.72-1.239 2.95-1.239 1.227 0 2.21.412 2.948 1.236.738.825 1.107 1.924 1.107 3.3 0 1.402-.369 2.514-1.107 3.336-.738.822-1.738 1.233-3 1.233zm.018-.92c.886 0 1.572-.319 2.056-.957.485-.64.727-1.54.727-2.705 0-1.128-.243-2.011-.73-2.648-.486-.637-1.159-.955-2.018-.955-.864 0-1.537.32-2.022.958-.484.639-.726 1.526-.726 2.663 0 1.133.24 2.023.72 2.672.48.648 1.145.973 1.993.973zm7.312.704v-8.672h2.883c.86 0 1.554.095 2.083.287.53.191.987.516 1.374.973.613.726.92 1.683.92 2.87 0 1.442-.381 2.56-1.143 3.352-.762.793-1.834 1.19-3.217 1.19h-2.9zm1.23-.92h1.577c1.125 0 1.922-.303 2.39-.908.504-.645.756-1.51.756-2.596 0-1.02-.248-1.82-.744-2.403a2.29 2.29 0 0 0-1.078-.729c-.418-.13-1.047-.196-1.887-.196h-1.014v6.832zm10.958 1.136c-.583 0-1.327-.126-2.233-.38v-1.22c.977.454 1.78.68 2.408.68.485 0 .874-.126 1.17-.38.294-.254.442-.588.442-1.002 0-.34-.097-.63-.29-.867-.194-.239-.55-.504-1.07-.797l-.597-.346c-.739-.422-1.26-.82-1.562-1.192a2.008 2.008 0 0 1-.454-1.304c0-.668.242-1.218.727-1.65.484-.431 1.101-.647 1.851-.647a7.35 7.35 0 0 1 2.115.334v1.125c-.914-.36-1.595-.54-2.045-.54-.425 0-.777.114-1.054.34a1.06 1.06 0 0 0-.416.856c0 .29.101.545.304.768.204.222.575.488 1.114.797l.62.351c.75.426 1.274.828 1.571 1.207.297.38.445.834.445 1.366 0 .753-.278 1.359-.835 1.816-.556.457-1.293.685-2.211.685z" fill="#666" fill-rule="nonzero"/><path d="M52 45h9v8h-9v-8zm-11 0h9v8h-9v-8zm-11 0h9v8h-9v-8zm22-10h9v8h-9v-8zm-11 0h9v8h-9v-8zm-11 0h9v8h-9v-8z" fill="#E5E5E5" fill-rule="nonzero"/><path d="M19 45h9v8h-9v-8zm0-10h9v8h-9v-8zm33-10h9v8h-9v-8zm-11 0h9v8h-9v-8zm-11 0h9v8h-9v-8zm-11 0h9v8h-9v-8z" fill="#6BAF56" fill-rule="nonzero"/></g></svg>