<svg width="240" height="240" viewBox="0 0 240 240" xmlns="http://www.w3.org/2000/svg"><g fill="none" fill-rule="evenodd"><g fill-rule="nonzero"><path fill="#CCC" d="M30 0h135v45h45v195H30z"/><path fill="#FFF" d="M31 1h134v44h44v194H31z"/></g><path fill="#989898" fill-rule="nonzero" d="M165 0l45 45h-45z"/><path d="M113 139H93l-5 17H77l19-59h14l19 59h-11l-5-17zm-18.112-7.992h15.224L103 106h-1l-7.112 25.008zM170.656 156H161l-.816-4.752h-.264c-2.64 3.344-7.128 5.72-12.672 5.72-8.624 0-13.464-6.248-13.464-12.76 0-10.824 9.592-16.28 25.432-16.192v-.704c0-2.816-1.144-7.48-8.712-7.48-4.224 0-8.624 1.32-11.528 3.168l-2.112-7.04c3.168-1.936 8.712-3.784 15.488-3.784 13.728 0 17.648 8.712 17.648 18.04v15.488c0 3.872.216 7.656.656 10.296zm-11.176-15.048v-5.896c-7.656-.176-14.96 1.496-14.96 8.008 0 4.224 2.728 6.16 6.16 6.16 4.312 0 7.48-2.816 8.448-5.896.264-.792.352-1.672.352-2.376z" fill="#7F7F7F"/></g></svg>